<svg width="41" height="41" viewBox="0 0 41 41" fill="none" xmlns="http://www.w3.org/2000/svg">
<path fill-rule="evenodd" clip-rule="evenodd" d="M7.6875 35.875C7.6875 35.875 5.125 35.875 5.125 33.3125C5.125 30.75 7.6875 23.0625 20.5 23.0625C33.3125 23.0625 35.875 30.75 35.875 33.3125C35.875 35.875 33.3125 35.875 33.3125 35.875H7.6875ZM20.5 20.5C22.5389 20.5 24.4942 19.6901 25.9359 18.2484C27.3776 16.8067 28.1875 14.8514 28.1875 12.8125C28.1875 10.7736 27.3776 8.8183 25.9359 7.37662C24.4942 5.93493 22.5389 5.125 20.5 5.125C18.4611 5.125 16.5058 5.93493 15.0641 7.37662C13.6224 8.8183 12.8125 10.7736 12.8125 12.8125C12.8125 14.8514 13.6224 16.8067 15.0641 18.2484C16.5058 19.6901 18.4611 20.5 20.5 20.5Z" fill="white"/>
</svg>
